<?xml version="1.0" encoding="UTF-8"?>
<svg xmlns="http://www.w3.org/2000/svg" width="1200" height="1200" xmlns:xlink="http://www.w3.org/1999/xlink" viewBox="0 0 1200 1200">
  <defs>
    <radialGradient id="radial-gradient" cx="801.25" cy="833.2" fx="801.25" fy="833.2" r="244.22" gradientUnits="userSpaceOnUse">
      <stop offset=".16" stop-color="#02adef"/>
      <stop offset="1" stop-color="#2a59be"/>
    </radialGradient>
    <filter id="outer-glow-1">
      <feOffset dx="0" dy="0"/>
      <feGaussianBlur result="blur" stdDeviation="70"/>
      <feFlood flood-color="#02adef" flood-opacity=".75"/>
      <feComposite in="blur" operator="in"/>
      <feComposite in="SourceGraphic"/>
    </filter>
    <radialGradient id="radial-gradient-2" cx="391.53" cy="367.51" fx="391.53" fy="367.51" r="46.79" xlink:href="#radial-gradient"/>
    <radialGradient id="radial-gradient-3" cx="339.93" cy="794.37" fx="339.93" fy="794.37" r="193.02" xlink:href="#radial-gradient"/>
    <filter id="outer-glow-2" filterUnits="userSpaceOnUse">
      <feOffset dx="0" dy="0"/>
      <feGaussianBlur result="blur" stdDeviation="10"/>
      <feFlood flood-color="#02adef" flood-opacity="1"/>
      <feComposite in2="blur" operator="in"/>
      <feComposite in="SourceGraphic"/>
    </filter>
    <radialGradient id="radial-gradient-4" cx="801.52" cy="370.17" fx="801.52" fy="370.17" r="245.23" xlink:href="#radial-gradient"/>
    <filter id="outer-glow-3" filterUnits="userSpaceOnUse">
      <feOffset dx="0" dy="0"/>
      <feGaussianBlur result="blur-2" stdDeviation="10"/>
      <feFlood flood-color="#02adef" flood-opacity="1"/>
      <feComposite in2="blur-2" operator="in"/>
      <feComposite in="SourceGraphic"/>
    </filter>
    <filter id="outer-glow-4" filterUnits="userSpaceOnUse">
      <feOffset dx="0" dy="0"/>
      <feGaussianBlur result="blur-3" stdDeviation="10"/>
      <feFlood flood-color="#02adef" flood-opacity="1"/>
      <feComposite in2="blur-3" operator="in"/>
      <feComposite in="SourceGraphic"/>
    </filter>
    <radialGradient id="radial-gradient-5" cx="241.83" cy="480.55" fx="241.83" fy="480.55" r="29.21" xlink:href="#radial-gradient"/>
    <radialGradient id="radial-gradient-6" cx="339.83" cy="409.44" fx="339.83" fy="409.44" r="192.95" xlink:href="#radial-gradient"/>
    <linearGradient id="linear-gradient" x1="854.33" y1="682.93" x2="1087" y2="744.01" gradientTransform="translate(-504.53 612.49) rotate(-29.8)" gradientUnits="userSpaceOnUse">
      <stop offset="0" stop-color="#223654"/>
      <stop offset="1" stop-color="#1c2538"/>
    </linearGradient>
    <linearGradient id="linear-gradient-2" x1="171.01" y1="287.04" x2="763.51" y2="287.04" gradientTransform="translate(-134.59 258.41) rotate(-13.91)" gradientUnits="userSpaceOnUse">
      <stop offset="0" stop-color="#223654"/>
      <stop offset="1" stop-color="#1c2538"/>
    </linearGradient>
  </defs>
  <g style="isolation: isolate;">
    <g id="Layer_1" data-name="Layer 1">
      <g>
        <polygon points="562.37 623.99 563.04 974.17 1040.01 1041.48 1040.12 624.77 562.37 623.99" style="fill: url(#radial-gradient); filter: url(#outer-glow-1);"/>
        <g id="Artwork_35" data-name="Artwork 35">
          <g>
            <path id="cloud" d="m1014.01,944.69c-1.66-9.9-9.37-17.6-18.61-17.89l-3.34-.1c-2.49-13.69-13.34-23.66-26.12-23.66s-23.7,9.37-26.17,22.08c-9.47.73-16.9,8.45-16.9,18.1,0,10.35,8.49,19.51,18.93,20.43l28.04,2.47c1.47.07,2.64-1.16,2.57-2.76-.06-1.5-1.17-2.82-2.57-2.97l-28.04-2.24c-7.48-.59-13.57-7.14-13.57-14.58s6.09-13.26,13.57-12.96c2.76.09,5.48,1.08,7.72,2.85,1.07.85,2.54.8,3.46-.12h0c1.05-1.04,1.05-2.79.01-3.94h-.01c-.1-.13-.21-.22-.33-.33-2.24-1.74-4.8-2.96-7.48-3.55,2.29-9.79,10.75-16.84,20.7-16.77,10.53.09,19.41,8.57,21.04,19.96-.85.45-1.66.95-2.44,1.51-1.2.89-1.48,2.7-.65,4.05.09.13.18.27.3.4h0c.92,1.05,2.39,1.23,3.46.43,2.26-1.68,4.96-2.51,7.72-2.38,6.61.27,12.12,5.76,13.32,12.79.24,1.44,1.35,2.54,2.64,2.63h0c1.47.1,2.67-1.17,2.69-2.87h0c.03-.19.03-.42,0-.61h.04Z" style="fill: #fff;"/>
            <g id="numbers">
              <path d="m980.63,962.33l-2.3-.19v-7.94l.06-1.23c-.27.27-.52.52-.8.76l-1.26,1.01-1.11-1.57,3.52-2.79,1.89.12.03,11.84h-.02Z" style="fill: #fff;"/>
              <path d="m991.21,957.19c0,2.09-.31,3.64-.95,4.59-.62.95-1.59,1.37-2.88,1.26s-2.2-.7-2.85-1.78c-.65-1.08-.97-2.63-.97-4.63s.31-3.62.92-4.59,1.57-1.38,2.87-1.31,2.2.67,2.85,1.77c.68,1.1,1,2.67,1,4.69h.01Zm-5.33-.39c0,1.46.12,2.51.36,3.18.22.67.62,1.01,1.17,1.05s.92-.25,1.17-.86c.24-.61.36-1.66.36-3.15s-.12-2.54-.37-3.19c-.24-.65-.62-1.01-1.16-1.04s-.92.27-1.17.88c-.24.61-.36,1.66-.36,3.13Z" style="fill: #fff;"/>
              <path d="m980.63,980.33l-2.3-.25v-7.94l.06-1.23c-.27.25-.52.5-.8.74l-1.26.98-1.11-1.6,3.52-2.7,1.89.16.03,11.84-.02.02Z" style="fill: #fff;"/>
              <path d="m989.34,981.25l-2.3-.25v-8.05l.06-1.25c-.27.27-.52.5-.8.74l-1.26.99-1.11-1.62,3.52-2.73,1.89.16v11.97h.03v.03Z" style="fill: #fff;"/>
              <path d="m998.09,982.18l-2.3-.25v-8.14l.06-1.26c-.27.27-.52.52-.8.76l-1.26.99-1.11-1.63,3.52-2.78,1.89.16.03,12.12v.03Z" style="fill: #fff;"/>
              <path d="m1008.66,977.15c0,2.15-.31,3.71-.95,4.68-.62.97-1.59,1.38-2.88,1.25s-2.2-.76-2.85-1.89c-.65-1.13-.97-2.72-.97-4.78s.31-3.7.92-4.68c.61-.98,1.57-1.38,2.87-1.26s2.2.73,2.85,1.87c.68,1.13,1.01,2.73,1,4.83h.01Zm-5.33-.52c0,1.48.12,2.58.36,3.27.22.68.61,1.04,1.17,1.1s.92-.24,1.17-.86c.24-.62.36-1.69.36-3.19s-.12-2.61-.37-3.28c-.24-.67-.62-1.04-1.16-1.08s-.92.25-1.17.88c-.24.62-.36,1.68-.36,3.18Z" style="fill: #fff;"/>
              <path d="m1013.65,992.5c0,1.57-.22,2.72-.68,3.42-.46.7-1.16,1-2.09.88s-1.6-.59-2.06-1.43c-.46-.83-.7-2-.7-3.52s.22-2.72.68-3.42c.46-.7,1.16-1,2.09-.89s1.6.58,2.08,1.43c.48.85.7,2.02.68,3.53Zm-3.88-.46c0,1.1.09,1.9.24,2.41.1.45.46.77.86.82s.67-.16.85-.62c.18-.48.27-1.23.27-2.33s-.09-1.92-.27-2.41-.46-.79-.85-.83-.68.16-.85.64c-.16.48-.27,1.23-.27,2.35h.01Z" style="fill: #fff;"/>
              <path d="m1018.66,997.63l-1.68-.21v-6.1l.06-.94c-.28.28-.48.46-.58.55l-.91.73-.8-1.25,2.55-2.02,1.38.15v9.07h-.03Z" style="fill: #fff;"/>
              <path d="m980.14,988.66c0,1.48-.22,2.54-.67,3.18-.43.65-1.14.92-2.06.8s-1.57-.55-2.03-1.35c-.46-.79-.68-1.87-.68-3.28s.22-2.54.67-3.18c.43-.65,1.11-.94,2.05-.83s1.57.53,2.03,1.32c.46.79.7,1.9.7,3.33h0Zm-3.8-.45c0,1.02.09,1.78.24,2.24.1.42.46.74.85.76.39.04.67-.15.82-.58.16-.43.27-1.16.27-2.18s-.09-1.8-.27-2.24c-.18-.46-.43-.73-.82-.77s-.67.15-.82.58c-.16.43-.28,1.16-.27,2.2h0Z" style="fill: #fff;"/>
              <path d="m985.02,993.48l-1.65-.21v-5.7l.06-.88c-.28.27-.46.45-.56.52l-.89.68-.79-1.17,2.49-1.89,1.35.15v8.48l-.02.02Z" style="fill: #fff;"/>
              <path d="m992.56,990.13c0,1.5-.22,2.58-.67,3.24-.43.65-1.14.94-2.06.83s-1.57-.56-2.03-1.37c-.46-.8-.68-1.9-.68-3.34s.22-2.58.67-3.24c.43-.65,1.11-.95,2.05-.85s1.57.55,2.03,1.35c.46.8.7,1.93.7,3.39v-.02Zm-3.8-.45c0,1.04.09,1.81.24,2.27.1.42.46.74.85.77.4.04.67-.15.82-.59.16-.45.27-1.19.27-2.23s-.09-1.83-.27-2.29-.46-.74-.82-.79-.67.15-.82.59c-.16.45-.28,1.17-.27,2.24h0Z" style="fill: #fff;"/>
              <path d="m997.44,995.01l-1.65-.21v-5.79l.06-.89c-.28.28-.48.45-.58.53l-.89.7-.79-1.19,2.49-1.93,1.35.15v8.63h0Z" style="fill: #fff;"/>
              <path d="m978.5,999.19c0,1.05-.16,1.81-.48,2.29-.31.48-.8.65-1.48.55-.58-.04-1.14-.42-1.46-1-.33-.58-.49-1.37-.49-2.38,0-1.07.16-1.83.48-2.29.31-.48.8-.65,1.47-.56.58.03,1.14.42,1.47.98.31.59.49,1.4.49,2.41Zm-2.75-.36c0,.74.06,1.28.18,1.6.09.37.42.61.76.55h.01c.21-.03.37-.18.42-.4.12-.31.18-.83.18-1.56.01-.55-.03-1.1-.19-1.63-.09-.36-.42-.61-.73-.56h-.03c-.21.03-.37.18-.42.4-.12.53-.18,1.05-.16,1.6h-.01Z" style="fill: #fff;"/>
              <path d="m982.02,1002.7l-1.19-.16v-4.08l.03-.62c-.19.18-.33.31-.4.37l-.65.46-.58-.83,1.8-1.32.97.12v6.07h.03Z" style="fill: #fff;"/>
              <path d="m994.04,1008.96c0,1.08-.16,1.86-.49,2.33s-.82.65-1.48.55c-.58-.04-1.14-.43-1.46-1.02-.33-.59-.49-1.4-.49-2.44s.16-1.86.48-2.35c.31-.48.8-.65,1.47-.56.58.04,1.14.43,1.47,1.01.36.61.5,1.43.5,2.47h0Zm-2.73-.39c0,.76.06,1.29.18,1.65.09.36.42.62.73.59h.03c.21-.01.37-.18.42-.4.12-.31.18-.85.18-1.6.01-.56-.03-1.13-.19-1.66-.07-.3-.31-.55-.59-.58s-.52.12-.59.42c-.1.3-.16.83-.16,1.6h.01Z" style="fill: #fff;"/>
              <path d="m997.57,1012.58l-1.19-.18v-4.17l.03-.64c-.19.19-.33.33-.4.37l-.65.49-.58-.88,1.8-1.34.98.13v6.21h.01Z" style="fill: #fff;"/>
              <path d="m1006.85,1001.72c0,1.53-.22,2.63-.67,3.3-.43.67-1.14.95-2.06.82s-1.57-.59-2.03-1.41c-.46-.82-.68-1.95-.68-3.42s.22-2.63.67-3.3c.43-.67,1.11-.95,2.05-.85s1.57.56,2.03,1.4c.46.83.7,1.97.7,3.46Zm-3.8-.49c0,1.08.09,1.86.24,2.32.1.43.46.77.85.8.39.04.67-.15.82-.59.16-.45.27-1.2.27-2.26s-.09-1.86-.27-2.35-.46-.76-.85-.82-.67.15-.82.59c-.16.45-.24,1.25-.24,2.3h0Z" style="fill: #fff;"/>
              <path d="m1011.75,1006.76l-1.65-.22v-5.91l.06-.91c-.28.28-.46.46-.56.53l-.89.7-.79-1.23,2.49-1.93,1.35.16v8.79h-.02Z" style="fill: #fff;"/>
              <path d="m1019.28,1003.34c0,1.56-.22,2.67-.67,3.36-.43.68-1.14.97-2.06.83s-1.57-.59-2.03-1.43c-.46-.83-.68-1.97-.68-3.47s.22-2.67.67-3.36c.43-.68,1.11-.98,2.05-.86s1.57.58,2.03,1.41c.46.83.7,2,.7,3.5h0Zm-3.8-.49c0,1.1.09,1.89.24,2.36.1.43.46.77.85.82.39.04.67-.15.82-.61.16-.46.27-1.22.27-2.3s-.09-1.89-.27-2.39-.46-.77-.82-.82-.67.15-.82.61c-.16.46-.27,1.26-.27,2.33h0Z" style="fill: #fff;"/>
              <path d="m1007.36,964.51l-2.3-.19v-8.24l.06-1.28c-.27.28-.52.53-.8.79l-1.26,1.05-1.11-1.62,3.52-2.9,1.9.12v12.27h.01-.01Z" style="fill: #fff;"/>
              <path d="m1017.96,959.15c0,2.18-.31,3.77-.95,4.75-.62.98-1.59,1.43-2.88,1.32s-2.2-.71-2.85-1.84c-.65-1.11-.97-2.73-.97-4.8s.31-3.76.92-4.77,1.57-1.44,2.87-1.35,2.2.68,2.85,1.83c.65,1.14.98,2.76,1,4.86h.01Zm-5.35-.39c0,1.5.12,2.61.36,3.3.22.7.62,1.04,1.17,1.08s.92-.27,1.17-.91c.24-.64.36-1.72.36-3.25s-.12-2.64-.37-3.31c-.24-.67-.62-1.04-1.16-1.07s-.92.27-1.17.91c-.24.64-.36,1.72-.36,3.25h0Z" style="fill: #fff;"/>
            </g>
          </g>
        </g>
        <circle cx="391.53" cy="367.41" r="42.98" style="fill: url(#radial-gradient-2);"/>
        <polygon points="519.44 621.5 160.14 619.17 160.16 919.36 519.71 968.79 519.44 621.5 519.44 621.5" style="fill: url(#radial-gradient-3); filter: url(#outer-glow-2);"/>
        <polygon points="1040.01 158.52 563.04 228.13 563.04 228.13 563.04 580.89 1040.01 577.11 1040.01 158.52" style="fill: url(#radial-gradient-4); filter: url(#outer-glow-3);"/>
        <g style="filter: url(#outer-glow-4);">
          <circle cx="241.83" cy="480.49" r="26.84" style="fill: url(#radial-gradient-5);"/>
          <path d="m519.61,234.54l-359.73,48.99h0l.32,300.04,359.55-2.05-.16-346.98Zm-214.69,256.13l-15.38,1.63c-1.2,4.86-3.11,9.42-5.63,13.58l9.73,12.03-14.4,14.4-12.03-9.73c-4.17,2.52-8.73,4.43-13.58,5.63l-1.63,15.38h-20.37l-1.63-15.38c-4.86-1.2-9.42-3.11-13.58-5.63l-12.03,9.73-14.4-14.4,9.73-12.03c-2.52-4.17-4.43-8.73-5.63-13.58l-15.38-1.63v-20.36l15.38-1.63c1.2-4.86,3.11-9.42,5.63-13.58l-9.73-12.03,14.4-14.4,12.03,9.73c4.17-2.52,8.73-4.43,13.58-5.63l1.63-15.38h20.37l1.63,15.38c4.86,1.2,9.42,3.11,13.58,5.63l12.03-9.73,14.4,14.4-9.73,12.03c2.52,4.17,4.43,8.73,5.63,13.58l15.38,1.63v20.36Zm187.67-106.94l-24.63,2.6c-1.92,7.78-4.98,15.08-9.02,21.76l15.58,19.26-23.07,23.07-19.26-15.58c-6.68,4.04-13.98,7.1-21.76,9.02l-2.6,24.63h-32.62l-2.6-24.63c-7.78-1.92-15.08-4.98-21.76-9.02l-19.26,15.58-23.07-23.07,15.58-19.26c-4.04-6.68-7.1-13.98-9.02-21.76l-24.63-2.6v-32.62l24.63-2.6c1.92-7.78,4.98-15.08,9.02-21.76l-15.58-19.26,23.07-23.07,19.26,15.58c6.68-4.04,13.98-7.1,21.76-9.02l2.6-24.63h32.62l2.6,24.63c7.78,1.92,15.08,4.98,21.76,9.02l19.26-15.58,23.07,23.07-15.58,19.26c4.04,6.68,7.1,13.98,9.02,21.76l24.63,2.6v32.62Z" style="fill: url(#radial-gradient-6);"/>
        </g>
      </g>
      <g id="Magnifying_Glass" data-name="Magnifying Glass">
        <g id="Artwork_28" data-name="Artwork 28">
          <g>
            <path d="m1049.82,824.86l-23.56,36.6c-16.84,26.19-51.74,33.09-77.98,15.41l-253.78-171.04c-25.99-17.54-38.03-48.52-32.71-77.4l-59.53-40.15,25.67-39.91,57.17,38.57c3.67-3.26,7.61-6.07,11.78-8.46,23.24-13.31,53.17-13.04,77.39,3.32l261.2,176.04c22.13,14.9,28.55,44.91,14.35,67.01Z" style="fill: #072249;"/>
            <path d="m1068.44,821.52l-24.79,37.61c-17.72,26.92-53.88,34.37-80.8,16.64l-260.35-171.46c-26.66-17.59-38.74-49.05-32.9-78.56l-61.08-40.25,27.02-41.01,58.65,38.67c3.84-3.37,7.93-6.28,12.28-8.76,24.18-13.85,55.12-13.93,79.97,2.47l267.96,176.48c22.7,14.94,28.98,45.47,14.05,68.18Z" style="fill: url(#linear-gradient);"/>
            <path d="m328.03,134.62c-29.9,6.16-59.34,17.12-87.28,33.12-141.95,81.31-191.1,262.26-109.79,404.21,69.2,120.8,210.56,174.38,338.62,137.56,22.42-6.44,44.44-15.66,65.59-27.77,141.95-81.31,191.1-262.26,109.79-404.21-65.31-114.01-194.89-168.14-316.93-142.91Zm66.63,60.06c72.9,6.49,141.55,47.35,180.67,115.66,63.61,111.06,25.16,252.63-85.9,316.25-36.43,20.87-76.15,30.75-115.34,30.7-.08.05-.16.02-.25,0-72.9-6.49-141.55-47.35-180.67-115.66-63.61-111.06-25.16-252.63,85.9-316.25,36.43-20.87,76.15-30.75,115.34-30.7.08.02.18,0,.25,0Z" style="fill: url(#linear-gradient-2);"/>
            <path d="m193.17,541.62c39.13,68.31,107.77,109.17,180.67,115.66-80.13-.22-157.96-42.05-200.66-116.59-63.61-111.06-25.16-252.63,85.9-316.25,42.66-24.44,89.8-33.79,135.32-29.77-39.18-.05-78.91,9.83-115.34,30.7-111.06,63.61-149.51,205.19-85.9,316.25Z" style="fill: #0c2f6b;"/>
            <path d="m553.99,317.73c63.61,111.06,25.16,252.63-85.9,316.25-36.43,20.87-76.15,30.75-115.34,30.7-.08.05-.16.02-.25,0-72.9-6.49-141.55-47.35-180.67-115.66-63.61-111.06-25.16-252.63,85.9-316.25,36.43-20.87,76.15-30.75,115.34-30.7.08.02.18,0,.25,0,72.9,6.49,141.55,47.35,180.67,115.66Z" style="fill: #cdf7f9; mix-blend-mode: overlay; opacity: .6;"/>
            <path d="m595.51,313.42c63.61,111.06,23.85,252.9-87.2,316.51-36.43,20.87-96.56,24.74-135.74,24.69-.08.05-.16.02-.25,0-47.67-4.24-93.53-23.18-130.49-54.92,7.65,1.49,15.34,2.57,23.09,3.26.08.02.17.05.25,0,39.18.05,78.91-9.83,115.34-30.7,111.06-63.61,149.51-205.19,85.9-316.25-13.53-23.62-30.6-43.98-50.18-60.74,64.08,12.21,144.33,57.11,179.3,118.15Z" style="fill: #d7e0f1; opacity: .1;"/>
            <path d="m595.32,311.27c63.61,111.06,25.16,252.63-85.9,316.25-42.66,24.44-89.8,33.79-135.32,29.77,39.18.05,78.91-9.83,115.34-30.7,111.06-63.61,149.51-205.19,85.9-316.25-39.13-68.31-107.77-109.17-180.67-115.66,80.13.22,157.96,42.05,200.66,116.59Z" style="fill: #223654;"/>
            <ellipse cx="220.53" cy="450.49" rx="33.04" ry="63.11" transform="translate(-56.95 32.67) rotate(-7.51)" style="fill: #d7e0f1; opacity: .42;"/>
            <rect x="787.43" y="619.76" width="17.47" height="221.27" rx="5.24" ry="5.24" transform="translate(-250.21 999.58) rotate(-56.96)" style="fill: #d7e0f1; opacity: .34;"/>
            <rect x="746.51" y="617.86" width="17.47" height="86.62" rx="5.24" ry="5.24" transform="translate(-210.79 933.79) rotate(-56.96)" style="fill: #d7e0f1; opacity: .34;"/>
          </g>
        </g>
      </g>
    </g>
  </g>
</svg>